Coordinates
version=1
nRows=16
nColumns=33
inDegrees=yes

Units are S.I. units (second, meters, Newtons, ...)
Angles are in degrees.

endheader
time	ground_thorax_rot_x	ground_thorax_rot_y	ground_thorax_rot_z	ground_thorax_tx	ground_thorax_ty	ground_thorax_tz	clav_prot_r	clav_elev_r	scapula_abduction_r	scapula_elevation_r	scapula_upward_rot_r	scapula_winging_r	shoulder_elv_r	plane_of_elev_r	axial_rot_r	elbow_flexion_r	pro_sup_r	wrist_flex_r	wrist_dev_r	clav_prot_l	clav_elev_l	scapula_abduction_l	scapula_elevation_l	scapula_upward_rot_l	scapula_winging_l	shoulder_elv_l	plane_of_elev_l	axial_rot_l	elbow_flexion_l	pro_sup_l	wrist_flex_l	wrist_dev_l	
6.6600	29.057484	28.844670	43.354204	-29.908657	829.209499	-41.803625	12.958622	34.452871	29.436476	45.000000	-45.000000	1714.302387	1512.259463	24.184900	180.000000	2880.428671	172.491839	14.074739	15.255576	-9.689097	-45.000000	-39.853073	45.000000	-23.200852	2987.587200	-4415.274571	142.009798	180.000000	2158.611351	-316.777733	15.463328	-23.583812	
6.6700	28.850971	29.060526	43.824963	-26.975733	827.690829	-41.727208	12.952863	34.454532	29.459947	45.000000	-45.000000	1714.496018	1512.191840	24.143933	180.000000	2880.409211	173.175861	13.999476	15.207277	-9.819231	-45.000000	-39.750300	45.000000	-23.227692	2987.561689	-4415.485229	141.985641	180.000000	2158.522566	-316.659379	15.534501	-23.403317	
6.6800	28.641781	29.275076	44.294590	-24.008520	826.131638	-41.647157	12.946214	34.453934	29.471138	45.000000	-45.000000	1714.699073	1512.130031	24.098982	180.000000	2880.401434	173.904660	13.931789	15.156788	-9.959833	-45.000000	-39.638295	45.000000	-23.259895	2987.537787	-4415.706319	141.957205	180.000000	2158.413551	-316.550455	15.600798	-23.214791	
6.6900	28.431115	29.482650	44.763651	-21.015022	824.530485	-41.558506	12.961982	34.467877	29.476945	45.000000	-45.000000	1714.903539	1512.065737	24.056677	180.000000	2880.408223	174.671098	13.871966	15.099244	-10.137783	-45.000000	-39.499885	45.000000	-23.288079	2987.508122	-4415.925473	141.932643	180.000000	2158.285658	-316.450006	15.656016	-23.020661	
6.7000	28.228598	29.682842	45.221554	-18.003099	822.886790	-41.456520	13.006127	34.503597	29.481310	45.000000	-45.000000	1715.101491	1511.998385	24.021915	180.000000	2880.431975	175.471222	13.820807	15.031153	-10.357748	-45.000000	-39.327023	45.000000	-23.307530	2987.468781	-4416.147060	141.910774	180.000000	2158.135070	-316.352546	15.700516	-22.825117	
6.7100	28.023606	29.879268	45.678065	-14.979183	821.200814	-41.337444	13.058880	34.549647	29.478041	45.000000	-45.000000	1715.300376	1511.929281	23.986822	180.000000	2880.473535	176.296765	13.774684	14.957846	-10.599706	-45.000000	-39.132366	45.000000	-23.338646	2987.425192	-4416.368350	141.891498	180.000000	2157.971560	-316.258545	15.733431	-22.625212	
6.7200	27.813942	30.074571	46.132513	-11.948123	819.473942	-41.198628	13.104544	34.593825	29.461069	45.000000	-45.000000	1715.505236	1511.863466	23.946369	180.000000	2880.529522	177.136479	13.730831	14.884962	-10.843308	-45.000000	-38.927046	45.000000	-23.400078	2987.379743	-4416.595166	141.869041	180.000000	2157.799837	-316.172359	15.757821	-22.419107	
6.7300	27.595675	30.267621	46.588658	-8.913409	817.708615	-41.038562	13.140211	34.635212	29.430604	45.000000	-45.000000	1715.716808	1511.800273	23.900458	180.000000	2880.601296	177.982179	13.686665	14.814492	-11.087269	-45.000000	-38.712072	45.000000	-23.495555	2987.331347	-4416.821842	141.844890	180.000000	2157.625943	-316.098477	15.774663	-22.203542	
6.7400	27.379156	30.454009	47.035840	-5.878156	815.908211	-40.856653	13.171861	34.678546	29.391449	45.000000	-45.000000	1715.928019	1511.740984	23.856520	180.000000	2880.684344	178.829697	13.644585	14.745732	-11.334464	-45.000000	-38.482943	45.000000	-23.623603	2987.274562	-4417.050974	141.816570	180.000000	2157.446783	-316.036792	15.787292	-21.981768	
6.7500	27.156378	30.637125	47.482061	-2.845672	814.076337	-40.653141	13.188086	34.719035	29.339309	45.000000	-45.000000	1716.143326	1511.685428	23.809216	180.000000	2880.780176	179.676193	13.602952	14.678929	-11.574490	-45.000000	-38.244364	45.000000	-23.789530	2987.214101	-4417.280267	141.785394	180.000000	2157.266525	-315.986329	15.795173	-21.751042	
6.7600	26.924031	30.815174	47.930956	0.179669	812.216341	-40.428963	13.193870	34.756719	29.273306	45.000000	-45.000000	1716.363870	1511.634522	23.757365	180.000000	2880.884361	180.517865	13.561563	14.614139	-11.810351	-45.000000	-37.996878	45.000000	-23.995398	2987.147556	-4417.506286	141.751611	180.000000	2157.090873	-315.944571	15.795648	-21.510715	
6.7700	26.680578	30.987330	48.384490	3.191836	810.331094	-40.185580	13.188604	34.793592	29.192561	45.000000	-45.000000	1716.588989	1511.585869	23.703840	180.000000	2880.999777	181.353195	13.519477	14.548452	-12.040451	-45.000000	-37.735788	45.000000	-24.237857	2987.076193	-4417.725961	141.714985	180.000000	2156.918915	-315.907513	15.788756	-21.262249	
6.7800	26.429074	31.153846	48.839184	6.182804	808.423139	-39.924847	13.174848	34.828790	29.098537	45.000000	-45.000000	1716.816195	1511.541770	23.648096	180.000000	2881.121423	182.179152	13.477000	14.483597	-12.265220	-45.000000	-37.462710	45.000000	-24.519917	2986.997788	-4417.939896	141.673457	180.000000	2156.756348	-315.871753	15.772706	-21.010531	
6.7900	26.172047	31.313656	49.290531	9.143548	806.494650	-39.648835	13.154559	34.863953	28.993077	45.000000	-45.000000	1717.043099	1511.498310	23.593336	180.000000	2881.252830	182.995969	13.432342	14.419220	-12.484350	-45.000000	-37.173870	45.000000	-24.839971	2986.913048	-4418.147317	141.627855	180.000000	2156.601001	-315.833532	15.749499	-20.759696	
6.8000	25.911485	31.465413	49.736087	12.064569	804.548069	-39.359781	13.130578	34.897592	28.877926	45.000000	-45.000000	1717.270064	1511.458872	23.539357	180.000000	2881.390459	183.800879	13.384100	14.357868	-12.698978	-45.000000	-36.873587	45.000000	-25.204918	2986.818444	-4418.349956	141.577006	180.000000	2156.455852	-315.791202	15.718151	-20.513385	
6.8100	25.655074	31.605524	50.167668	14.937253	802.586326	-39.059991	13.105990	34.933463	28.756397	45.000000	-45.000000	1717.494190	1511.419592	23.492300	180.000000	2881.534862	184.594866	13.331578	14.299634	-12.910826	-45.000000	-36.558459	45.000000	-25.609687	2986.715006	-4418.546572	141.523224	180.000000	2156.319439	-315.743619	15.681987	-20.276598	
